<mxfile host="app.diagrams.net" agent="Mozilla/5.0 (Windows NT 10.0; Win64; x64) AppleWebKit/537.36 (KHTML, like Gecko) Chrome/131.0.0.0 Safari/537.36" version="26.0.2">
  <diagram name="Страница — 1" id="NZbn_GLvDckBzevisfvI">
    <mxGraphModel dx="913" dy="1096" grid="0" gridSize="10" guides="1" tooltips="1" connect="1" arrows="1" fold="1" page="0" pageScale="1" pageWidth="1169" pageHeight="827" math="0" shadow="0">
      <root>
        <mxCell id="0" />
        <mxCell id="1" parent="0" />
        <mxCell id="JH5U76IGOBcUqnHT-_Kr-2" value="" style="rounded=0;whiteSpace=wrap;html=1;rotation=90;" parent="1" vertex="1">
          <mxGeometry x="488.11" y="484.67" width="802.22" height="620.92" as="geometry" />
        </mxCell>
        <mxCell id="p_r1cKh_CzRkiVNsoP0s-77" style="edgeStyle=none;curved=1;rounded=0;orthogonalLoop=1;jettySize=auto;html=1;entryX=0;entryY=0.5;entryDx=0;entryDy=0;fontSize=12;startSize=8;endSize=8;endArrow=none;endFill=0;" parent="1" source="svQCepNTFexyG-QFbBfc-3" target="OeR3qFUjESxq3L1rICcf-10" edge="1">
          <mxGeometry relative="1" as="geometry" />
        </mxCell>
        <mxCell id="p_r1cKh_CzRkiVNsoP0s-78" style="edgeStyle=none;curved=1;rounded=0;orthogonalLoop=1;jettySize=auto;html=1;entryX=0;entryY=0.5;entryDx=0;entryDy=0;fontSize=12;startSize=8;endSize=8;endArrow=none;endFill=0;" parent="1" source="svQCepNTFexyG-QFbBfc-3" target="p_r1cKh_CzRkiVNsoP0s-5" edge="1">
          <mxGeometry relative="1" as="geometry" />
        </mxCell>
        <mxCell id="bwHQZoLI509qidypqNT2-47" style="rounded=0;orthogonalLoop=1;jettySize=auto;html=1;entryX=0;entryY=0.5;entryDx=0;entryDy=0;endArrow=none;endFill=0;" parent="1" source="svQCepNTFexyG-QFbBfc-3" target="JH5U76IGOBcUqnHT-_Kr-12" edge="1">
          <mxGeometry relative="1" as="geometry" />
        </mxCell>
        <mxCell id="svQCepNTFexyG-QFbBfc-3" value="Гость" style="shape=umlActor;verticalLabelPosition=bottom;verticalAlign=top;html=1;outlineConnect=0;fontFamily=Times New Roman;fontSize=13;" parent="1" vertex="1">
          <mxGeometry x="511" y="1028" width="30" height="60" as="geometry" />
        </mxCell>
        <mxCell id="OeR3qFUjESxq3L1rICcf-12" style="edgeStyle=none;shape=connector;rounded=0;orthogonalLoop=1;jettySize=auto;html=1;labelBackgroundColor=default;strokeColor=default;align=center;verticalAlign=middle;fontFamily=Helvetica;fontSize=11;fontColor=default;endArrow=none;endFill=0;" parent="1" source="svQCepNTFexyG-QFbBfc-7" target="OeR3qFUjESxq3L1rICcf-9" edge="1">
          <mxGeometry relative="1" as="geometry" />
        </mxCell>
        <mxCell id="OeR3qFUjESxq3L1rICcf-13" style="edgeStyle=none;shape=connector;rounded=0;orthogonalLoop=1;jettySize=auto;html=1;labelBackgroundColor=default;strokeColor=default;align=center;verticalAlign=middle;fontFamily=Helvetica;fontSize=11;fontColor=default;endArrow=none;endFill=0;" parent="1" source="svQCepNTFexyG-QFbBfc-7" target="OeR3qFUjESxq3L1rICcf-8" edge="1">
          <mxGeometry relative="1" as="geometry" />
        </mxCell>
        <mxCell id="bwHQZoLI509qidypqNT2-44" style="rounded=0;orthogonalLoop=1;jettySize=auto;html=1;endArrow=none;endFill=0;" parent="1" source="svQCepNTFexyG-QFbBfc-7" target="OeR3qFUjESxq3L1rICcf-10" edge="1">
          <mxGeometry relative="1" as="geometry" />
        </mxCell>
        <mxCell id="svQCepNTFexyG-QFbBfc-7" value="Пользователь" style="shape=umlActor;verticalLabelPosition=bottom;verticalAlign=top;html=1;outlineConnect=0;fontFamily=Times New Roman;fontSize=13;" parent="1" vertex="1">
          <mxGeometry x="511" y="908" width="30" height="60" as="geometry" />
        </mxCell>
        <mxCell id="JH5U76IGOBcUqnHT-_Kr-21" style="rounded=0;orthogonalLoop=1;jettySize=auto;html=1;exitX=0;exitY=0;exitDx=0;exitDy=0;dashed=1;endArrow=block;endFill=0;" parent="1" source="OeR3qFUjESxq3L1rICcf-7" target="OeR3qFUjESxq3L1rICcf-10" edge="1">
          <mxGeometry relative="1" as="geometry" />
        </mxCell>
        <mxCell id="OeR3qFUjESxq3L1rICcf-7" value="&lt;font style=&quot;font-size: 13px;&quot;&gt;Фильтрация&lt;/font&gt;&lt;div&gt;&lt;font style=&quot;font-size: 13px;&quot;&gt;туров&lt;/font&gt;&lt;/div&gt;" style="ellipse;whiteSpace=wrap;html=1;fontFamily=Times New Roman;" parent="1" vertex="1">
          <mxGeometry x="935" y="1021" width="110" height="70" as="geometry" />
        </mxCell>
        <mxCell id="OeR3qFUjESxq3L1rICcf-8" value="&lt;font&gt;Бронирование&amp;nbsp;&lt;/font&gt;&lt;div&gt;&lt;font&gt;туров&lt;/font&gt;&lt;/div&gt;" style="ellipse;whiteSpace=wrap;html=1;fontFamily=Times New Roman;fontSize=13;" parent="1" vertex="1">
          <mxGeometry x="600" y="847" width="110" height="70" as="geometry" />
        </mxCell>
        <mxCell id="OeR3qFUjESxq3L1rICcf-9" value="&lt;font&gt;Оставлять отзывы к турам&amp;nbsp;&lt;/font&gt;" style="ellipse;whiteSpace=wrap;html=1;fontFamily=Times New Roman;fontSize=13;" parent="1" vertex="1">
          <mxGeometry x="594" y="760.5" width="110" height="70" as="geometry" />
        </mxCell>
        <mxCell id="p_r1cKh_CzRkiVNsoP0s-66" style="edgeStyle=none;curved=1;rounded=0;orthogonalLoop=1;jettySize=auto;html=1;entryX=0.709;entryY=0.064;entryDx=0;entryDy=0;fontSize=12;startSize=8;endSize=8;endArrow=none;endFill=0;startArrow=block;startFill=0;dashed=1;entryPerimeter=0;" parent="1" source="OeR3qFUjESxq3L1rICcf-10" target="p_r1cKh_CzRkiVNsoP0s-64" edge="1">
          <mxGeometry relative="1" as="geometry" />
        </mxCell>
        <mxCell id="OeR3qFUjESxq3L1rICcf-10" value="&lt;font style=&quot;font-size: 13px;&quot;&gt;Просмотр туров&lt;/font&gt;" style="ellipse;whiteSpace=wrap;html=1;fontFamily=Times New Roman;" parent="1" vertex="1">
          <mxGeometry x="845" y="901" width="110" height="70" as="geometry" />
        </mxCell>
        <mxCell id="OeR3qFUjESxq3L1rICcf-15" value="Добавление туров" style="ellipse;whiteSpace=wrap;html=1;fontFamily=Times New Roman;fontSize=13;" parent="1" vertex="1">
          <mxGeometry x="1022" y="742" width="110" height="70" as="geometry" />
        </mxCell>
        <mxCell id="OeR3qFUjESxq3L1rICcf-21" value="Удаление туров" style="ellipse;whiteSpace=wrap;html=1;fontFamily=Times New Roman;fontSize=13;" parent="1" vertex="1">
          <mxGeometry x="1022" y="820" width="110" height="70" as="geometry" />
        </mxCell>
        <mxCell id="bwHQZoLI509qidypqNT2-43" style="rounded=0;orthogonalLoop=1;jettySize=auto;html=1;endArrow=none;endFill=0;" parent="1" source="zMWsZsheXrGuxRjLxGXC-20" target="OeR3qFUjESxq3L1rICcf-10" edge="1">
          <mxGeometry relative="1" as="geometry" />
        </mxCell>
        <mxCell id="SSumNysxTkyqhvxM6G0D-3" style="rounded=0;orthogonalLoop=1;jettySize=auto;html=1;entryX=0;entryY=0.5;entryDx=0;entryDy=0;startArrow=none;startFill=0;endArrow=none;endFill=0;" parent="1" source="zMWsZsheXrGuxRjLxGXC-20" target="SSumNysxTkyqhvxM6G0D-2" edge="1">
          <mxGeometry relative="1" as="geometry" />
        </mxCell>
        <mxCell id="SSumNysxTkyqhvxM6G0D-9" style="rounded=0;orthogonalLoop=1;jettySize=auto;html=1;entryX=0;entryY=0.5;entryDx=0;entryDy=0;endArrow=none;endFill=0;" parent="1" source="zMWsZsheXrGuxRjLxGXC-20" target="SSumNysxTkyqhvxM6G0D-8" edge="1">
          <mxGeometry relative="1" as="geometry" />
        </mxCell>
        <mxCell id="zMWsZsheXrGuxRjLxGXC-20" value="Менеджер" style="shape=umlActor;verticalLabelPosition=bottom;verticalAlign=top;html=1;outlineConnect=0;fontFamily=Times New Roman;fontSize=13;" parent="1" vertex="1">
          <mxGeometry x="511" y="563" width="30" height="60" as="geometry" />
        </mxCell>
        <mxCell id="zMWsZsheXrGuxRjLxGXC-26" value="Редактирование туров" style="ellipse;whiteSpace=wrap;html=1;fontFamily=Times New Roman;fontSize=13;" parent="1" vertex="1">
          <mxGeometry x="992" y="903" width="110" height="70" as="geometry" />
        </mxCell>
        <mxCell id="zMWsZsheXrGuxRjLxGXC-27" value="Подтверждение брони туров" style="ellipse;whiteSpace=wrap;html=1;fontFamily=Times New Roman;fontSize=13;" parent="1" vertex="1">
          <mxGeometry x="828" y="559" width="110" height="70" as="geometry" />
        </mxCell>
        <mxCell id="zMWsZsheXrGuxRjLxGXC-39" style="edgeStyle=none;curved=1;rounded=0;orthogonalLoop=1;jettySize=auto;html=1;entryX=0.5;entryY=1;entryDx=0;entryDy=0;fontSize=12;startSize=8;endSize=8;endArrow=none;endFill=0;" parent="1" edge="1">
          <mxGeometry relative="1" as="geometry">
            <mxPoint x="2541.1012658227846" y="229" as="sourcePoint" />
            <mxPoint x="2372" y="-136" as="targetPoint" />
          </mxGeometry>
        </mxCell>
        <mxCell id="nBBlVvWBp2isnyXZccdl-5" style="edgeStyle=none;curved=1;rounded=0;orthogonalLoop=1;jettySize=auto;html=1;entryX=1;entryY=0.5;entryDx=0;entryDy=0;fontSize=12;startSize=8;endSize=8;endArrow=none;endFill=0;" parent="1" source="zMWsZsheXrGuxRjLxGXC-35" target="zMWsZsheXrGuxRjLxGXC-46" edge="1">
          <mxGeometry relative="1" as="geometry" />
        </mxCell>
        <mxCell id="SSumNysxTkyqhvxM6G0D-15" style="rounded=0;orthogonalLoop=1;jettySize=auto;html=1;entryX=0;entryY=0.5;entryDx=0;entryDy=0;endArrow=none;endFill=0;" parent="1" source="zMWsZsheXrGuxRjLxGXC-35" target="SSumNysxTkyqhvxM6G0D-14" edge="1">
          <mxGeometry relative="1" as="geometry" />
        </mxCell>
        <mxCell id="zMWsZsheXrGuxRjLxGXC-35" value="Администратор" style="shape=umlActor;verticalLabelPosition=bottom;verticalAlign=top;html=1;outlineConnect=0;fontFamily=Times New Roman;fontSize=13;" parent="1" vertex="1">
          <mxGeometry x="511" y="417" width="30" height="60" as="geometry" />
        </mxCell>
        <mxCell id="zMWsZsheXrGuxRjLxGXC-44" value="Блокировка пользователей" style="ellipse;whiteSpace=wrap;html=1;fontFamily=Times New Roman;fontSize=13;" parent="1" vertex="1">
          <mxGeometry x="1055.44" y="500" width="114" height="70" as="geometry" />
        </mxCell>
        <mxCell id="zMWsZsheXrGuxRjLxGXC-45" value="Удаление пользователей" style="ellipse;whiteSpace=wrap;html=1;fontFamily=Times New Roman;fontSize=13;" parent="1" vertex="1">
          <mxGeometry x="1058" y="426" width="114" height="70" as="geometry" />
        </mxCell>
        <mxCell id="zMWsZsheXrGuxRjLxGXC-46" value="Удаление отзывов к турам" style="ellipse;whiteSpace=wrap;html=1;fontFamily=Times New Roman;fontSize=13;" parent="1" vertex="1">
          <mxGeometry x="616" y="469" width="119" height="70" as="geometry" />
        </mxCell>
        <mxCell id="p_r1cKh_CzRkiVNsoP0s-5" value="&lt;font style=&quot;font-size: 13px;&quot;&gt;Регистрация&lt;/font&gt;" style="ellipse;whiteSpace=wrap;html=1;fontFamily=Times New Roman;" parent="1" vertex="1">
          <mxGeometry x="645" y="1021" width="110" height="70" as="geometry" />
        </mxCell>
        <mxCell id="p_r1cKh_CzRkiVNsoP0s-27" style="edgeStyle=none;curved=1;rounded=0;orthogonalLoop=1;jettySize=auto;html=1;exitX=1;exitY=0.5;exitDx=0;exitDy=0;fontSize=12;startSize=8;endSize=8;" parent="1" edge="1">
          <mxGeometry relative="1" as="geometry">
            <mxPoint x="1193.999999999996" y="862" as="sourcePoint" />
            <mxPoint x="1193.999999999996" y="862" as="targetPoint" />
          </mxGeometry>
        </mxCell>
        <mxCell id="p_r1cKh_CzRkiVNsoP0s-64" value="&lt;font style=&quot;font-size: 13px;&quot;&gt;Просмотр тура&lt;/font&gt;" style="ellipse;whiteSpace=wrap;html=1;fontFamily=Times New Roman;" parent="1" vertex="1">
          <mxGeometry x="776" y="1021" width="110" height="70" as="geometry" />
        </mxCell>
        <mxCell id="p_r1cKh_CzRkiVNsoP0s-69" value="&lt;font&gt;&amp;lt;&amp;lt;Extend&amp;gt;&amp;gt;&lt;/font&gt;" style="edgeLabel;html=1;align=center;verticalAlign=middle;resizable=0;points=[];fontSize=12;" parent="1" vertex="1" connectable="0">
          <mxGeometry x="800.0019687346944" y="1002.9962314473769" as="geometry">
            <mxPoint x="64" y="-9" as="offset" />
          </mxGeometry>
        </mxCell>
        <mxCell id="JH5U76IGOBcUqnHT-_Kr-12" value="&lt;font style=&quot;font-size: 13px;&quot;&gt;Авторизация&lt;/font&gt;" style="ellipse;whiteSpace=wrap;html=1;fontFamily=Times New Roman;" parent="1" vertex="1">
          <mxGeometry x="645" y="1102" width="110" height="70" as="geometry" />
        </mxCell>
        <mxCell id="JH5U76IGOBcUqnHT-_Kr-34" style="edgeStyle=orthogonalEdgeStyle;rounded=0;orthogonalLoop=1;jettySize=auto;html=1;exitX=0.5;exitY=1;exitDx=0;exitDy=0;" parent="1" source="zMWsZsheXrGuxRjLxGXC-44" target="zMWsZsheXrGuxRjLxGXC-44" edge="1">
          <mxGeometry relative="1" as="geometry" />
        </mxCell>
        <mxCell id="bwHQZoLI509qidypqNT2-46" value="&lt;font&gt;&amp;lt;&amp;lt;Extend&amp;gt;&amp;gt;&lt;/font&gt;" style="edgeLabel;html=1;align=center;verticalAlign=middle;resizable=0;points=[];fontSize=12;" parent="1" vertex="1" connectable="0">
          <mxGeometry x="872.0019687346944" y="1002.9962314473769" as="geometry">
            <mxPoint x="64" y="-9" as="offset" />
          </mxGeometry>
        </mxCell>
        <mxCell id="bwHQZoLI509qidypqNT2-49" style="rounded=0;orthogonalLoop=1;jettySize=auto;html=1;endArrow=block;endFill=0;" parent="1" edge="1">
          <mxGeometry relative="1" as="geometry">
            <mxPoint x="526" y="500" as="sourcePoint" />
            <mxPoint x="526" y="539" as="targetPoint" />
          </mxGeometry>
        </mxCell>
        <mxCell id="SSumNysxTkyqhvxM6G0D-4" style="rounded=0;orthogonalLoop=1;jettySize=auto;html=1;endArrow=none;endFill=0;startArrow=block;startFill=0;dashed=1;" parent="1" source="SSumNysxTkyqhvxM6G0D-2" target="OeR3qFUjESxq3L1rICcf-15" edge="1">
          <mxGeometry relative="1" as="geometry" />
        </mxCell>
        <mxCell id="SSumNysxTkyqhvxM6G0D-5" style="rounded=0;orthogonalLoop=1;jettySize=auto;html=1;entryX=0;entryY=0.5;entryDx=0;entryDy=0;endArrow=none;endFill=0;startArrow=block;startFill=0;dashed=1;" parent="1" source="SSumNysxTkyqhvxM6G0D-2" target="OeR3qFUjESxq3L1rICcf-21" edge="1">
          <mxGeometry relative="1" as="geometry" />
        </mxCell>
        <mxCell id="SSumNysxTkyqhvxM6G0D-6" style="rounded=0;orthogonalLoop=1;jettySize=auto;html=1;entryX=0;entryY=0;entryDx=0;entryDy=0;endArrow=none;endFill=0;startArrow=block;startFill=0;dashed=1;" parent="1" source="SSumNysxTkyqhvxM6G0D-2" target="zMWsZsheXrGuxRjLxGXC-26" edge="1">
          <mxGeometry relative="1" as="geometry" />
        </mxCell>
        <mxCell id="SSumNysxTkyqhvxM6G0D-2" value="Управление турами" style="ellipse;whiteSpace=wrap;html=1;fontFamily=Times New Roman;fontSize=13;" parent="1" vertex="1">
          <mxGeometry x="822" y="777" width="110" height="70" as="geometry" />
        </mxCell>
        <mxCell id="SSumNysxTkyqhvxM6G0D-7" value="Отмена брони туров" style="ellipse;whiteSpace=wrap;html=1;fontFamily=Times New Roman;fontSize=13;" parent="1" vertex="1">
          <mxGeometry x="825" y="672" width="110" height="70" as="geometry" />
        </mxCell>
        <mxCell id="SSumNysxTkyqhvxM6G0D-20" style="rounded=0;orthogonalLoop=1;jettySize=auto;html=1;entryX=0;entryY=0.5;entryDx=0;entryDy=0;endArrow=none;endFill=0;startArrow=block;startFill=0;dashed=1;" parent="1" source="SSumNysxTkyqhvxM6G0D-8" target="SSumNysxTkyqhvxM6G0D-7" edge="1">
          <mxGeometry relative="1" as="geometry" />
        </mxCell>
        <mxCell id="SSumNysxTkyqhvxM6G0D-21" style="rounded=0;orthogonalLoop=1;jettySize=auto;html=1;endArrow=none;endFill=0;startArrow=block;startFill=0;dashed=1;" parent="1" source="SSumNysxTkyqhvxM6G0D-8" target="zMWsZsheXrGuxRjLxGXC-27" edge="1">
          <mxGeometry relative="1" as="geometry" />
        </mxCell>
        <mxCell id="SSumNysxTkyqhvxM6G0D-8" value="Управление бронями туров" style="ellipse;whiteSpace=wrap;html=1;fontFamily=Times New Roman;fontSize=13;" parent="1" vertex="1">
          <mxGeometry x="618" y="559" width="116" height="70" as="geometry" />
        </mxCell>
        <mxCell id="SSumNysxTkyqhvxM6G0D-13" value="Разблокировка пользователей" style="ellipse;whiteSpace=wrap;html=1;fontFamily=Times New Roman;fontSize=13;" parent="1" vertex="1">
          <mxGeometry x="1055.44" y="579" width="114" height="70" as="geometry" />
        </mxCell>
        <mxCell id="SSumNysxTkyqhvxM6G0D-16" style="rounded=0;orthogonalLoop=1;jettySize=auto;html=1;endArrow=none;endFill=0;startArrow=block;startFill=0;dashed=1;" parent="1" source="SSumNysxTkyqhvxM6G0D-14" target="zMWsZsheXrGuxRjLxGXC-45" edge="1">
          <mxGeometry relative="1" as="geometry" />
        </mxCell>
        <mxCell id="SSumNysxTkyqhvxM6G0D-17" style="rounded=0;orthogonalLoop=1;jettySize=auto;html=1;entryX=0;entryY=0.5;entryDx=0;entryDy=0;endArrow=none;endFill=0;startArrow=block;startFill=0;dashed=1;" parent="1" source="SSumNysxTkyqhvxM6G0D-14" target="zMWsZsheXrGuxRjLxGXC-44" edge="1">
          <mxGeometry relative="1" as="geometry" />
        </mxCell>
        <mxCell id="SSumNysxTkyqhvxM6G0D-18" style="rounded=0;orthogonalLoop=1;jettySize=auto;html=1;entryX=0;entryY=0.5;entryDx=0;entryDy=0;endArrow=none;endFill=0;startArrow=block;startFill=0;dashed=1;" parent="1" source="SSumNysxTkyqhvxM6G0D-14" target="SSumNysxTkyqhvxM6G0D-13" edge="1">
          <mxGeometry relative="1" as="geometry" />
        </mxCell>
        <mxCell id="SSumNysxTkyqhvxM6G0D-14" value="Управление пользователями" style="ellipse;whiteSpace=wrap;html=1;fontFamily=Times New Roman;fontSize=13;" parent="1" vertex="1">
          <mxGeometry x="810" y="426" width="114" height="70" as="geometry" />
        </mxCell>
        <mxCell id="SSumNysxTkyqhvxM6G0D-26" value="&lt;font&gt;&amp;lt;&amp;lt;Extend&amp;gt;&amp;gt;&lt;/font&gt;" style="edgeLabel;html=1;align=center;verticalAlign=middle;resizable=0;points=[];fontSize=12;" parent="1" vertex="1" connectable="0">
          <mxGeometry x="875.0019687346944" y="873.9962314473769" as="geometry">
            <mxPoint x="64" y="-9" as="offset" />
          </mxGeometry>
        </mxCell>
        <mxCell id="SSumNysxTkyqhvxM6G0D-27" value="&lt;font&gt;&amp;lt;&amp;lt;Extend&amp;gt;&amp;gt;&lt;/font&gt;" style="edgeLabel;html=1;align=center;verticalAlign=middle;resizable=0;points=[];fontSize=12;" parent="1" vertex="1" connectable="0">
          <mxGeometry x="910.0019687346944" y="798.9962314473769" as="geometry">
            <mxPoint x="64" y="-9" as="offset" />
          </mxGeometry>
        </mxCell>
        <mxCell id="SSumNysxTkyqhvxM6G0D-28" value="&lt;font&gt;&amp;lt;&amp;lt;Extend&amp;gt;&amp;gt;&lt;/font&gt;" style="edgeLabel;html=1;align=center;verticalAlign=middle;resizable=0;points=[];fontSize=12;" parent="1" vertex="1" connectable="0">
          <mxGeometry x="902.0019687346944" y="506.9962314473769" as="geometry">
            <mxPoint x="64" y="-9" as="offset" />
          </mxGeometry>
        </mxCell>
        <mxCell id="SSumNysxTkyqhvxM6G0D-29" value="&lt;font&gt;&amp;lt;&amp;lt;Extend&amp;gt;&amp;gt;&lt;/font&gt;" style="edgeLabel;html=1;align=center;verticalAlign=middle;resizable=0;points=[];fontSize=12;" parent="1" vertex="1" connectable="0">
          <mxGeometry x="673.0019687346944" y="653.9962314473769" as="geometry">
            <mxPoint x="64" y="-9" as="offset" />
          </mxGeometry>
        </mxCell>
        <mxCell id="SSumNysxTkyqhvxM6G0D-30" value="&lt;font&gt;&amp;lt;&amp;lt;Extend&amp;gt;&amp;gt;&lt;/font&gt;" style="edgeLabel;html=1;align=center;verticalAlign=middle;resizable=0;points=[];fontSize=12;" parent="1" vertex="1" connectable="0">
          <mxGeometry x="719.0019687346944" y="602.9962314473769" as="geometry">
            <mxPoint x="64" y="-9" as="offset" />
          </mxGeometry>
        </mxCell>
        <mxCell id="SSumNysxTkyqhvxM6G0D-31" value="&lt;font&gt;&amp;lt;&amp;lt;Extend&amp;gt;&amp;gt;&lt;/font&gt;" style="edgeLabel;html=1;align=center;verticalAlign=middle;resizable=0;points=[];fontSize=12;" parent="1" vertex="1" connectable="0">
          <mxGeometry x="908.0019687346944" y="846.9962314473769" as="geometry">
            <mxPoint x="64" y="-9" as="offset" />
          </mxGeometry>
        </mxCell>
        <mxCell id="SSumNysxTkyqhvxM6G0D-32" value="&lt;font&gt;&amp;lt;&amp;lt;Extend&amp;gt;&amp;gt;&lt;/font&gt;" style="edgeLabel;html=1;align=center;verticalAlign=middle;resizable=0;points=[];fontSize=12;" parent="1" vertex="1" connectable="0">
          <mxGeometry x="886.0019687346944" y="530.9962314473769" as="geometry">
            <mxPoint x="64" y="-9" as="offset" />
          </mxGeometry>
        </mxCell>
        <mxCell id="SSumNysxTkyqhvxM6G0D-33" value="&lt;font&gt;&amp;lt;&amp;lt;Extend&amp;gt;&amp;gt;&lt;/font&gt;" style="edgeLabel;html=1;align=center;verticalAlign=middle;resizable=0;points=[];fontSize=12;" parent="1" vertex="1" connectable="0">
          <mxGeometry x="914.0019687346944" y="468.9962314473769" as="geometry">
            <mxPoint x="64" y="-9" as="offset" />
          </mxGeometry>
        </mxCell>
        <mxCell id="Tde1RYHnbCcCl4A8BDwN-13" value="Смена роли пользователей" style="ellipse;whiteSpace=wrap;html=1;fontFamily=Times New Roman;fontSize=13;" vertex="1" parent="1">
          <mxGeometry x="1055.44" y="661" width="114" height="70" as="geometry" />
        </mxCell>
        <mxCell id="Tde1RYHnbCcCl4A8BDwN-15" style="rounded=0;orthogonalLoop=1;jettySize=auto;html=1;entryX=0;entryY=0;entryDx=0;entryDy=0;endArrow=none;endFill=0;startArrow=block;startFill=0;dashed=1;exitX=0.5;exitY=1;exitDx=0;exitDy=0;" edge="1" parent="1" source="SSumNysxTkyqhvxM6G0D-14" target="Tde1RYHnbCcCl4A8BDwN-13">
          <mxGeometry relative="1" as="geometry">
            <mxPoint x="895" y="531.5" as="sourcePoint" />
            <mxPoint x="1049" y="656.5" as="targetPoint" />
          </mxGeometry>
        </mxCell>
        <mxCell id="Tde1RYHnbCcCl4A8BDwN-16" value="&lt;font&gt;&amp;lt;&amp;lt;Extend&amp;gt;&amp;gt;&lt;/font&gt;" style="edgeLabel;html=1;align=center;verticalAlign=middle;resizable=0;points=[];fontSize=12;" vertex="1" connectable="0" parent="1">
          <mxGeometry x="845.0019687346944" y="546.9962314473769" as="geometry">
            <mxPoint x="64" y="-9" as="offset" />
          </mxGeometry>
        </mxCell>
      </root>
    </mxGraphModel>
  </diagram>
</mxfile>
